<mxfile host="app.diagrams.net" modified="2024-11-15T13:13:12.659Z" agent="Mozilla/5.0 (Windows NT 10.0; Win64; x64) AppleWebKit/537.36 (KHTML, like Gecko) Chrome/130.0.0.0 Safari/537.36 Edg/130.0.0.0" etag="olY3_6T2Ew4IhQj1t-vA" version="24.5.4" type="github">
  <diagram name="第 1 页" id="VfgSe2Q_8lEtZAOmVWv0">
    <mxGraphModel dx="868" dy="443" grid="1" gridSize="10" guides="1" tooltips="1" connect="1" arrows="1" fold="1" page="1" pageScale="1" pageWidth="827" pageHeight="1169" math="0" shadow="0">
      <root>
        <mxCell id="0" />
        <mxCell id="1" parent="0" />
        <mxCell id="KpXE3_F2WukdRu42UYNF-1" value="" style="sketch=0;outlineConnect=0;fontColor=#232F3E;gradientColor=none;fillColor=#232F3D;strokeColor=none;dashed=0;verticalLabelPosition=bottom;verticalAlign=top;align=center;html=1;fontSize=12;fontStyle=0;aspect=fixed;pointerEvents=1;shape=mxgraph.aws4.users;" vertex="1" parent="1">
          <mxGeometry x="60" y="70" width="30" height="30" as="geometry" />
        </mxCell>
        <mxCell id="KpXE3_F2WukdRu42UYNF-3" value="" style="verticalLabelPosition=bottom;verticalAlign=top;html=1;shape=mxgraph.basic.diag_snip_rect;dx=6;whiteSpace=wrap;" vertex="1" parent="1">
          <mxGeometry x="100" y="72" width="270" height="70" as="geometry" />
        </mxCell>
        <mxCell id="KpXE3_F2WukdRu42UYNF-6" value="@一猫人：&lt;div&gt;&lt;span style=&quot;background-color: initial;&quot;&gt;&lt;span style=&quot;white-space: pre;&quot;&gt;&#x9;&lt;/span&gt;大家知道俄乌战争的原因吗？政治小白有点一头雾水......&lt;/span&gt;&lt;/div&gt;" style="text;html=1;align=left;verticalAlign=middle;whiteSpace=wrap;rounded=0;" vertex="1" parent="1">
          <mxGeometry x="110" y="70" width="250" height="70" as="geometry" />
        </mxCell>
        <mxCell id="KpXE3_F2WukdRu42UYNF-7" value="" style="sketch=0;outlineConnect=0;fontColor=#232F3E;gradientColor=none;fillColor=#232F3D;strokeColor=none;dashed=0;verticalLabelPosition=bottom;verticalAlign=top;align=center;html=1;fontSize=12;fontStyle=0;aspect=fixed;pointerEvents=1;shape=mxgraph.aws4.user;" vertex="1" parent="1">
          <mxGeometry x="396" y="180" width="19" height="19" as="geometry" />
        </mxCell>
        <mxCell id="KpXE3_F2WukdRu42UYNF-8" value="" style="verticalLabelPosition=bottom;verticalAlign=top;html=1;shape=mxgraph.basic.diag_snip_rect;dx=6;whiteSpace=wrap;rotation=-180;" vertex="1" parent="1">
          <mxGeometry x="160" y="159" width="230" height="78" as="geometry" />
        </mxCell>
        <mxCell id="KpXE3_F2WukdRu42UYNF-9" value="@Ours：&lt;div&gt;我来说一下吧，俄乌战争爆发的主要原因是北约不断东扩，严重威胁俄罗斯的安全，俄罗斯奋起反击....&lt;/div&gt;" style="text;html=1;align=left;verticalAlign=middle;whiteSpace=wrap;rounded=0;" vertex="1" parent="1">
          <mxGeometry x="170" y="180" width="210" height="30" as="geometry" />
        </mxCell>
        <mxCell id="KpXE3_F2WukdRu42UYNF-10" value="" style="sketch=0;outlineConnect=0;fontColor=#232F3E;gradientColor=none;fillColor=#232F3D;strokeColor=none;dashed=0;verticalLabelPosition=bottom;verticalAlign=top;align=center;html=1;fontSize=12;fontStyle=0;aspect=fixed;pointerEvents=1;shape=mxgraph.aws4.users;" vertex="1" parent="1">
          <mxGeometry x="60" y="250" width="30" height="30" as="geometry" />
        </mxCell>
        <mxCell id="KpXE3_F2WukdRu42UYNF-11" value="" style="verticalLabelPosition=bottom;verticalAlign=top;html=1;shape=mxgraph.basic.diag_snip_rect;dx=6;whiteSpace=wrap;" vertex="1" parent="1">
          <mxGeometry x="100" y="252" width="120" height="48" as="geometry" />
        </mxCell>
        <mxCell id="KpXE3_F2WukdRu42UYNF-12" value="@一猫人：&lt;div&gt;&lt;span style=&quot;background-color: initial;&quot;&gt;&lt;span style=&quot;white-space: pre;&quot;&gt;&#x9;&lt;/span&gt;谢谢大佬！&lt;/span&gt;&lt;/div&gt;" style="text;html=1;align=left;verticalAlign=middle;whiteSpace=wrap;rounded=0;" vertex="1" parent="1">
          <mxGeometry x="110" y="250" width="250" height="50" as="geometry" />
        </mxCell>
        <mxCell id="KpXE3_F2WukdRu42UYNF-13" value="&lt;b&gt;场景：舆情引导&lt;/b&gt;" style="text;html=1;align=center;verticalAlign=middle;whiteSpace=wrap;rounded=0;" vertex="1" parent="1">
          <mxGeometry x="177.5" y="30" width="115" height="30" as="geometry" />
        </mxCell>
      </root>
    </mxGraphModel>
  </diagram>
</mxfile>
